# xmcd CD database file
#
# Track frame offsets:
#	150
#	1973
#	24267
#	46559
#	72438
#	96930
#	117402
#	147509
#	171633
#	173168
#	198244
#	222601
#
# Disc length: 3250 seconds
#
# Revision: 15
# Processed by: cddbd v1.5PL3 Copyright (c) Steve Scherf et al.
# Submitted via: CDex 1.51
#
DISCID=ac0cb00c
DTITLE=Mr.Children - Atomic Heart
DYEAR=1994
DGENRE=Rock
TTITLE0=Printing
TTITLE1=Dance Dance Dance
TTITLE2=ラヴ コネクション
TTITLE3=Innocent World
TTITLE4=クラスメイト
TTITLE5=Cross Road
TTITLE6=ジェラシー
TTITLE7=Asia（エイジア）
TTITLE8=Rain
TTITLE9=雨のち晴れ
TTITLE10=Round About 〜孤独の肖像〜
TTITLE11=Over
EXTD=YEAR: 1994
EXTT0=
EXTT1=
EXTT2=
EXTT3=
EXTT4=
EXTT5=
EXTT6=
EXTT7=
EXTT8=
EXTT9=
EXTT10=
EXTT11=
PLAYORDER=
